<?xml version="1.0" encoding="utf-8"?>
<!-- Generator: Adobe Illustrator 20.0.0, SVG Export Plug-In . SVG Version: 6.00 Build 0)  -->
<svg version="1.1" id="Layer_1" xmlns="http://www.w3.org/2000/svg" xmlns:xlink="http://www.w3.org/1999/xlink" x="0px" y="0px"
	 viewBox="0 0 500 500" style="enable-background:new 0 0 500 500;" xml:space="preserve">
<style type="text/css">
	.st0{fill:#FFC83B;}
	.st1{fill:#FFFFFF;}
</style>
<path id="background" class="st0" d="M500.1,67.6c0-37.3-30.2-67.6-67.6-67.6H67.6C30.3,0-0.1,30.2-0.1,67.6v364.8
	c0,37.3,30.2,67.6,67.6,67.6h364.8c37.3,0,67.6-30.2,67.6-67.6V67.6H500.1z"/>
<g id="icon">
	<path id="colours" class="st1" d="M415.6,83.4c-17.9-17.9-46.9-17.9-64.8,0l-54,54l-14.9-14.9c-7.8-7.8-20.5-7.8-28.4,0
		s-7.8,20.5,0,28.4l14.9,14.9l-166,166c-8.2,8.2-12.6,18.6-13.3,29.3c-0.3,4.3-1.4,12.4-2.7,21.2c-0.2,1.4-0.8,2.8-1.9,3.9l0,0
		L72,398.6c-4,4-4,10.4,0,14.4l14,14c4,4,10.4,4,14.4,0l12.4-12.4c1.1-1.1,2.5-1.7,3.9-1.9c8.7-1.3,16.8-2.4,21.2-2.7
		c10.7-0.7,21.1-5.2,29.3-13.3l166-166l14.9,14.9c7.8,7.8,20.5,7.8,28.4,0s7.8-20.5,0-28.4L327,167.7l38.8,30.3l49.8-49.8
		C433.5,130.3,433.5,101.3,415.6,83.4z M309.2,221l-82.1,82.1c-4,4-10.4,4-14.4,0L199.6,290c-4-4-10.4-4-14.4,0l-2.5,2.5l0,0
		l-58.9,58.9c-1.3,1.3-3.3,1.6-4.3,0.6c-1-1-0.8-3,0.6-4.3l95.4-95.4l0,0l62.5-62.5c4-4,10.4-4,14.4,0l16.8,16.8
		C313.2,210.6,313.2,217,309.2,221z"/>
</g>
</svg>
